<svg width="22" height="27" viewBox="0 0 22 27" fill="none" xmlns="http://www.w3.org/2000/svg">
<path fill-rule="evenodd" clip-rule="evenodd" d="M14.2776 1.32779H15.9992C15.9992 1.3396 15.9993 1.35137 15.9993 1.36318C15.9993 2.55393 15.5654 3.66574 14.7007 4.69481C13.6572 5.91816 12.395 6.62509 11.0262 6.51351C11.0088 6.37067 10.9987 6.22035 10.9987 6.06235C10.9987 4.91923 11.4949 3.69588 12.3762 2.6956C12.8162 2.18914 13.3758 1.76802 14.0544 1.43212C14.1293 1.39551 14.2037 1.36072 14.2776 1.32779ZM1.74354 10.587C1.83196 10.4023 1.92833 10.2227 2.03251 10.0481C2.57377 9.12179 3.29386 8.39105 4.19507 7.85463C5.09628 7.31821 6.07005 7.04481 7.1187 7.02732C7.69251 7.02732 8.44498 7.20532 9.38005 7.55509C10.3125 7.90607 10.9112 8.08402 11.1737 8.08402C11.3699 8.08402 12.035 7.87593 13.1625 7.46105C14.2288 7.0763 15.1287 6.91695 15.8659 6.97974C17.8635 7.14137 19.3644 7.93105 20.3625 9.3537C19.7656 9.71635 19.2695 10.1275 18.8741 10.587H1.74354Z" fill="#5C9E31"/>
<path d="M14.2776 1.3278V0.862671C14.2124 0.862671 14.1479 0.876396 14.0883 0.902964L14.2776 1.3278ZM15.9992 1.3278L16.4642 1.3245C16.4624 1.06892 16.2547 0.862671 15.9992 0.862671V1.3278ZM14.7007 4.69482L15.0546 4.99668L15.0568 4.99403L14.7007 4.69482ZM11.0262 6.51352L10.5646 6.56989C10.5913 6.78906 10.7684 6.9592 10.9885 6.9771L11.0262 6.51352ZM12.3762 2.69561L12.7252 3.0031L12.7274 3.00064L12.3762 2.69561ZM14.0544 1.43213L13.8501 1.01422L13.848 1.01529L14.0544 1.43213ZM1.74354 10.5871L1.324 10.3862C1.25502 10.5303 1.26484 10.6998 1.35 10.835C1.43516 10.9702 1.58377 11.0522 1.74354 11.0522V10.5871ZM2.03251 10.0481L2.43186 10.2866L2.43414 10.2828L2.03251 10.0481ZM7.1187 7.02734V6.56222C7.11614 6.56222 7.11354 6.56227 7.11098 6.56231L7.1187 7.02734ZM9.38005 7.5551L9.54386 7.1198L9.54298 7.11948L9.38005 7.5551ZM13.1625 7.46106L13.0047 7.02352L13.0019 7.02454L13.1625 7.46106ZM15.8659 6.97975L15.8264 7.4432L15.8284 7.44334L15.8659 6.97975ZM20.3625 9.35371L20.604 9.7512C20.7139 9.68441 20.7913 9.57501 20.8177 9.4491C20.844 9.32315 20.8171 9.19189 20.7432 9.08659L20.3625 9.35371ZM18.8741 10.5871V11.0522C19.0096 11.0522 19.1383 10.9931 19.2267 10.8904L18.8741 10.5871ZM14.2776 1.79292H15.9992V0.862671H14.2776V1.79292ZM15.534 1.33106C15.5341 1.34175 15.5341 1.35245 15.5341 1.3632H16.4644C16.4644 1.35031 16.4643 1.33743 16.4642 1.3245L15.534 1.33106ZM15.5341 1.3632C15.5341 2.43017 15.1487 3.43868 14.3446 4.39557L15.0568 4.99403C15.9822 3.89278 16.4644 2.67771 16.4644 1.3632H15.5341ZM14.3468 4.39296C13.3607 5.54906 12.2319 6.14515 11.064 6.04994L10.9885 6.9771C12.558 7.10506 13.9537 6.28734 15.0546 4.99668L14.3468 4.39296ZM11.4879 6.45715C11.4726 6.33189 11.4638 6.20041 11.4638 6.06236H10.5336C10.5336 6.24027 10.545 6.40948 10.5646 6.56989L11.4879 6.45715ZM11.4638 6.06236C11.4638 5.04938 11.9067 3.93203 12.7252 3.0031L12.0273 2.38813C11.0831 3.45971 10.5336 4.7891 10.5336 6.06236H11.4638ZM12.7274 3.00064C13.122 2.54636 13.6301 2.1611 14.2607 1.84896L13.848 1.01529C13.1214 1.37496 12.5104 1.83194 12.0251 2.39059L12.7274 3.00064ZM14.2586 1.84999C14.3287 1.81575 14.3981 1.78329 14.467 1.75264L14.0883 0.902964C14.0092 0.93822 13.9298 0.975336 13.8501 1.01422L14.2586 1.84999ZM2.16307 10.7879C2.2454 10.6159 2.33498 10.4488 2.43186 10.2866L1.63321 9.80966C1.52163 9.99655 1.41856 10.1887 1.324 10.3862L2.16307 10.7879ZM2.43414 10.2828C2.93665 9.42269 3.60112 8.74948 4.43298 8.25431L3.95716 7.45496C2.98661 8.03269 2.21093 8.82092 1.63093 9.81347L2.43414 10.2828ZM4.43298 8.25431C5.26363 7.75989 6.15791 7.50855 7.12647 7.49241L7.11098 6.56231C5.98219 6.58115 4.92893 6.87655 3.95716 7.45496L4.43298 8.25431ZM7.1187 7.49245C7.60926 7.49245 8.29977 7.64761 9.21707 7.99073L9.54298 7.11948C8.59019 6.76306 7.77577 6.56222 7.1187 6.56222V7.49245ZM9.21619 7.99041C9.6873 8.16775 10.0819 8.30436 10.3963 8.39724C10.695 8.48552 10.9682 8.54915 11.1737 8.54915V7.61892C11.1167 7.61892 10.9592 7.59362 10.6599 7.50515C10.3762 7.42134 10.0052 7.29343 9.54386 7.1198L9.21619 7.99041ZM11.1737 8.54915C11.2827 8.54915 11.4078 8.52376 11.5179 8.49715C11.6394 8.4678 11.787 8.42552 11.9579 8.37199C12.3002 8.26478 12.7566 8.10603 13.3232 7.89757L13.0019 7.02454C12.441 7.23096 12.001 7.38371 11.6799 7.48427C11.519 7.53464 11.393 7.57031 11.2994 7.59296C11.1944 7.61831 11.1628 7.61892 11.1737 7.61892V8.54915ZM13.3204 7.89855C14.3534 7.5258 15.1818 7.38831 15.8264 7.4432L15.9054 6.51631C15.0756 6.44566 14.1042 6.62673 13.0047 7.02352L13.3204 7.89855ZM15.8284 7.44334C17.7125 7.5958 19.0761 8.33013 19.9817 9.62082L20.7432 9.08659C19.6526 7.53203 18.0146 6.68701 15.9034 6.51613L15.8284 7.44334ZM20.1209 8.95622C19.4885 9.34045 18.9532 9.78203 18.5215 10.2837L19.2267 10.8904C19.5858 10.473 20.0427 10.0923 20.604 9.7512L20.1209 8.95622ZM18.8741 10.1219H1.74354V11.0522H18.8741V10.1219Z" fill="#5C9E31"/>
<path fill-rule="evenodd" clip-rule="evenodd" d="M19.9115 9.72408C18.7178 10.5763 18.0097 11.6622 17.7865 12.9799H1.07809C1.21526 11.9109 1.5333 10.9577 2.03256 10.1216C2.11247 9.98487 2.19628 9.85231 2.284 9.72408H19.9115Z" fill="#FCEA2B"/>
<path fill-rule="evenodd" clip-rule="evenodd" d="M17.8688 12.5148C17.7583 12.9524 17.7052 13.4175 17.7097 13.91C17.7187 14.7666 17.8975 15.5422 18.2453 16.2357H1.18037C1.06019 15.5373 1 14.8499 1 14.1733C1 13.5912 1.04577 13.0383 1.1373 12.5148H17.8688Z" fill="#F4AA41"/>
<path fill-rule="evenodd" clip-rule="evenodd" d="M17.9651 15.7706C18.2273 16.584 18.691 17.3001 19.3556 17.9177C19.8451 18.3836 20.3918 18.7437 21 18.9994C20.9969 19.0084 20.9938 19.0174 20.9907 19.0264H1.8759C1.83776 18.9224 1.80037 18.8173 1.76372 18.7113C1.42083 17.7098 1.19321 16.7297 1.08125 15.7706H17.9651Z" fill="#EA5A47"/>
<path fill-rule="evenodd" clip-rule="evenodd" d="M19.4385 22.2822C19.8744 21.6327 20.2548 20.9319 20.5808 20.1766C20.7288 19.8239 20.8681 19.4565 21 19.0728C20.964 19.0577 20.9283 19.0423 20.8928 19.0264H1.84916C2.29116 20.2481 2.83976 21.3326 3.49493 22.2822H19.4385Z" fill="#8967AA"/>
<path fill-rule="evenodd" clip-rule="evenodd" d="M6.83195 25.0729C6.32121 24.9501 5.81153 24.6517 5.30251 24.177C4.87069 23.7994 4.33693 23.1677 3.70242 22.2822H19.2354C18.5953 23.1892 18.0688 23.8209 17.6598 24.177C17.1203 24.6745 16.5492 24.9726 15.9448 25.0729H15.0592C14.6268 25.0099 14.138 24.8671 13.5942 24.6429C12.8325 24.3314 12.1325 24.177 11.4925 24.177C10.8212 24.177 10.1013 24.3314 9.33121 24.6429C8.81051 24.8543 8.35809 24.9973 7.97297 25.0729H6.83195Z" fill="#61B2E4"/>
<path d="M11.0262 6.51352C11.0088 6.37068 10.9987 6.22036 10.9987 6.06236C10.9987 4.91924 11.4949 3.69589 12.3762 2.69562C12.8162 2.18915 13.3758 1.76803 14.0544 1.43213C14.7315 1.1012 15.372 0.91822 15.9744 0.886871C15.992 1.04603 15.9993 1.20524 15.9993 1.3632C15.9993 2.55394 15.5654 3.66575 14.7007 4.69482C14.3146 5.14752 13.8984 5.52952 13.458 5.82548M20.5808 19.8826C20.2218 20.7145 19.7967 21.4802 19.3043 22.1842C18.633 23.1438 18.0834 23.8081 17.6598 24.1771C17.0032 24.7825 16.2997 25.0926 15.5464 25.1103C15.0056 25.1103 14.3533 24.956 13.5942 24.6429C12.8325 24.3313 12.1325 24.1771 11.4925 24.1771C10.8212 24.1771 10.1013 24.3313 9.33126 24.6429C8.56 24.956 7.93874 25.1191 7.46372 25.1353C6.7413 25.1661 6.02126 24.8472 5.30251 24.1771C4.84377 23.7758 4.26995 23.088 3.5826 22.1136C2.84507 21.0731 2.23874 19.8665 1.76372 18.4909C1.25502 17.005 1 15.5662 1 14.1732C1 12.5776 1.34386 11.2014 2.03256 10.0481C2.57381 9.1218 3.29386 8.39106 4.19507 7.85464C5.09628 7.31822 6.07005 7.04482 7.1187 7.02734C7.69251 7.02734 8.44498 7.20534 9.38005 7.5551C10.3125 7.90608 10.9112 8.08403 11.1737 8.08403C11.3699 8.08403 12.035 7.87594 13.1626 7.46106C14.2288 7.07631 15.1287 6.91696 15.8659 6.97976C17.8635 7.14138 19.3644 7.93106 20.3625 9.35371C18.5759 10.4392 17.6921 11.9596 17.7097 13.91C17.7258 15.4292 18.2754 16.6934 19.3556 17.6972C19.8451 18.1631 20.3918 18.5232 21 18.7789C20.8681 19.1625 20.7289 19.5299 20.5808 19.8826Z" stroke="black" stroke-width="1.74402" stroke-linecap="round" stroke-linejoin="round"/>
</svg>
